<svg width="115" height="115" viewBox="0 0 198 200" fill="none" xmlns="http://www.w3.org/2000/svg">
<g clip-path="url(#clip0_11_348)">
<path d="M99 0C79.4197 0 60.2791 5.8649 43.9986 16.853C27.7181 27.8412 15.029 43.459 7.53597 61.7317C0.0428953 80.0043 -1.91764 100.111 1.9023 119.509C5.72224 138.907 15.1511 156.725 28.9965 170.711C42.8419 184.696 60.482 194.22 79.6861 198.079C98.8902 201.937 118.796 199.957 136.886 192.388C154.976 184.819 170.437 172.002 181.316 155.557C192.194 139.112 198 119.778 198 100C197.972 73.4872 187.532 48.0684 168.972 29.321C150.412 10.5736 125.248 0.0286757 99 0ZM170.42 58.3333H143.806C137.841 44.3625 129.981 31.2983 120.45 19.5167C141.52 25.2981 159.479 39.2482 170.42 58.3333ZM136.125 100C136.066 108.483 134.75 116.91 132.223 125H65.7773C63.2498 116.91 61.9345 108.483 61.875 100C61.9345 91.5168 63.2498 83.0902 65.7773 75H132.223C134.75 83.0902 136.066 91.5168 136.125 100ZM72.3856 141.667H125.615C118.607 155.636 109.644 168.513 99 179.9C88.3565 168.513 79.3929 155.636 72.3856 141.667ZM72.3856 58.3333C79.3929 44.3638 88.3565 31.487 99 20.1C109.644 31.487 118.607 44.3638 125.615 58.3333H72.3856ZM77.55 19.5167C68.0217 31.2999 60.1612 44.3638 54.1943 58.3333H27.5798C38.5213 39.2482 56.4799 25.2981 77.55 19.5167ZM20.295 75H48.609C44.2972 91.3821 44.2972 108.618 48.609 125H20.295C15.2353 108.725 15.2353 91.2749 20.295 75ZM27.5798 141.667H54.1943C60.1588 155.637 68.0195 168.702 77.55 180.483C56.4799 174.702 38.5213 160.752 27.5798 141.667ZM120.45 180.483C129.978 168.7 137.839 155.636 143.806 141.667H170.42C159.479 160.752 141.52 174.702 120.45 180.483ZM177.705 125H149.391C153.703 108.618 153.703 91.3821 149.391 75H177.705C182.765 91.2749 182.765 108.725 177.705 125Z" fill="black"/>
</g>
<defs>
<clipPath id="clip0_11_348">
<rect width="198" height="200" fill="white"/>
</clipPath>
</defs>
</svg>
