<svg width="59" height="59" viewBox="0 0 59 59" fill="none" xmlns="http://www.w3.org/2000/svg">
<g clip-path="url(#clip0_8_195)">
<path d="M59 19.6667V49.1667H54.0833V22.8379L34.7117 35.3312C33.1602 36.3388 31.35 36.8751 29.5 36.8751C27.65 36.8751 25.8398 36.3388 24.2883 35.3312L0 19.6667L24.2883 3.99969C25.8406 2.99437 27.6506 2.45947 29.5 2.45947C31.3494 2.45947 33.1594 2.99437 34.7117 3.99969L59 19.6667ZM29.5 41.7917C26.7083 41.7897 23.9765 40.9813 21.6333 39.4636L9.83333 31.86V50.1844L10.5536 50.9047C10.7847 51.1333 16.3405 56.5417 29.5 56.5417C42.6595 56.5417 48.2153 51.1333 48.4464 50.9047L49.1667 50.1844V31.86L37.3667 39.4636C35.0235 40.9813 32.2917 41.7897 29.5 41.7917Z" fill="black"/>
</g>
<defs>
<clipPath id="clip0_8_195">
<rect width="59" height="59" fill="white"/>
</clipPath>
</defs>
</svg>
