<svg width="59" height="59" viewBox="0 0 59 59" fill="none" xmlns="http://www.w3.org/2000/svg">
<path d="M35.0312 5.53125C24.869 5.53125 16.5938 13.8065 16.5938 23.9688C16.5938 28.3837 18.1422 32.4313 20.7422 35.6074L6.0498 50.2998L8.7002 52.9502L23.3926 38.2578C26.5687 40.8578 30.6163 42.4062 35.0312 42.4062C45.1935 42.4062 53.4688 34.131 53.4688 23.9688C53.4688 13.8065 45.1935 5.53125 35.0312 5.53125ZM35.0312 9.21875C43.1985 9.21875 49.7812 15.8015 49.7812 23.9688C49.7812 32.136 43.1985 38.7188 35.0312 38.7188C26.864 38.7188 20.2812 32.136 20.2812 23.9688C20.2812 15.8015 26.864 9.21875 35.0312 9.21875Z" fill="#9A9A9A"/>
</svg>
