<svg width="59" height="59" viewBox="0 0 59 59" fill="none" xmlns="http://www.w3.org/2000/svg">
<g clip-path="url(#clip0_431_188)">
<path d="M2.88117 47.0009C1.03693 48.8446 0.000556935 51.3453 0 53.9531L0 59H5.04696C7.65471 58.9995 10.1554 57.9631 11.9991 56.1188L44.8007 23.3173L35.6827 14.1993L2.88117 47.0009Z" fill="black"/>
<path d="M56.898 2.1019C56.2994 1.50265 55.5885 1.02725 54.8061 0.702905C54.0236 0.378556 53.1849 0.211609 52.3378 0.211609C51.4908 0.211609 50.6521 0.378556 49.8696 0.702905C49.0871 1.02725 48.3762 1.50265 47.7776 2.1019L39.1587 10.7233L48.2767 19.8412L56.898 11.2223C57.4973 10.6237 57.9727 9.91282 58.297 9.13034C58.6214 8.34787 58.7883 7.50914 58.7883 6.66211C58.7883 5.81508 58.6214 4.97635 58.297 4.19388C57.9727 3.4114 57.4973 2.70053 56.898 2.1019Z" fill="black"/>
</g>
<defs>
<clipPath id="clip0_431_188">
<rect width="59" height="59" fill="white"/>
</clipPath>
</defs>
</svg>
