<svg width="38" height="38" viewBox="0 0 38 38" fill="none" xmlns="http://www.w3.org/2000/svg">
<g clip-path="url(#clip0_1_73)">
<path d="M21.375 30.0833H16.625V28.8388C16.625 25.0848 18.8227 21.8057 22.8143 19.6048C25.8305 17.9423 27.3917 14.6474 26.7885 11.2116C26.2311 8.04016 23.6265 5.43558 20.4551 4.87825C18.0595 4.45867 15.7384 5.06983 13.9144 6.59933C12.1157 8.10983 11.085 10.3217 11.085 12.6667H6.33496C6.33496 8.91417 7.98479 5.377 10.8601 2.96242C13.7323 0.549415 17.5339 -0.454418 21.2753 0.199498C26.38 1.09566 30.571 5.28675 31.4672 10.3914C32.4125 15.7732 29.8554 21.1486 25.107 23.7658C22.6306 25.1307 21.375 26.8359 21.375 28.8388V30.0833ZM21.375 33.25H16.625V38H21.375V33.25Z" fill="black"/>
</g>
<defs>
<clipPath id="clip0_1_73">
<rect width="38" height="38" fill="white"/>
</clipPath>
</defs>
</svg>
