<svg width="55" height="55" viewBox="0 0 55 55" fill="none" xmlns="http://www.w3.org/2000/svg">
<g clip-path="url(#clip0_347_28)">
<path d="M54.3281 0.670969C53.8983 0.241348 53.3155 0 52.7078 0C52.1002 0 51.5174 0.241348 51.0876 0.670969L27.4995 24.2591L3.91139 0.670969C3.48163 0.241348 2.89885 0 2.29118 0C1.68351 0 1.10072 0.241348 0.670969 0.670969C0.241348 1.10072 0 1.68351 0 2.29118C0 2.89885 0.241348 3.48163 0.670969 3.91139L24.2591 27.4995L0.670969 51.0876C0.241348 51.5174 0 52.1002 0 52.7078C0 53.3155 0.241348 53.8983 0.670969 54.3281C1.10072 54.7577 1.68351 54.999 2.29118 54.999C2.89885 54.999 3.48163 54.7577 3.91139 54.3281L27.4995 30.7399L51.0876 54.3281C51.5174 54.7577 52.1002 54.999 52.7078 54.999C53.3155 54.999 53.8983 54.7577 54.3281 54.3281C54.7577 53.8983 54.999 53.3155 54.999 52.7078C54.999 52.1002 54.7577 51.5174 54.3281 51.0876L30.7399 27.4995L54.3281 3.91139C54.7577 3.48163 54.999 2.89885 54.999 2.29118C54.999 1.68351 54.7577 1.10072 54.3281 0.670969Z" fill="black"/>
</g>
<defs>
<clipPath id="clip0_347_28">
<rect width="55" height="55" fill="white"/>
</clipPath>
</defs>
</svg>
