<svg width="30" height="30" viewBox="0 0 38 38" fill="none" xmlns="http://www.w3.org/2000/svg">
<g clip-path="url(#clip0_2_2)">
<path d="M25.3333 23.75C25.3333 24.1699 25.1665 24.5727 24.8696 24.8696C24.5727 25.1665 24.1699 25.3333 23.75 25.3333H20.5833V28.5C20.5833 28.9199 20.4165 29.3227 20.1196 29.6196C19.8227 29.9165 19.4199 30.0833 19 30.0833C18.5801 30.0833 18.1773 29.9165 17.8804 29.6196C17.5835 29.3227 17.4167 28.9199 17.4167 28.5V25.3333H14.25C13.8301 25.3333 13.4273 25.1665 13.1304 24.8696C12.8335 24.5727 12.6667 24.1699 12.6667 23.75C12.6667 23.3301 12.8335 22.9273 13.1304 22.6304C13.4273 22.3335 13.8301 22.1667 14.25 22.1667H17.4167V19C17.4167 18.5801 17.5835 18.1773 17.8804 17.8804C18.1773 17.5835 18.5801 17.4167 19 17.4167C19.4199 17.4167 19.8227 17.5835 20.1196 17.8804C20.4165 18.1773 20.5833 18.5801 20.5833 19V22.1667H23.75C24.1699 22.1667 24.5727 22.3335 24.8696 22.6304C25.1665 22.9273 25.3333 23.3301 25.3333 23.75ZM38 12.6667V28.5C37.9975 30.5989 37.1626 32.611 35.6785 34.0951C34.1944 35.5793 32.1822 36.4142 30.0833 36.4167H7.91667C5.81781 36.4142 3.80563 35.5793 2.32151 34.0951C0.837396 32.611 0.00251411 30.5989 0 28.5L0 9.5C0.00251411 7.40114 0.837396 5.38897 2.32151 3.90485C3.80563 2.42073 5.81781 1.58585 7.91667 1.58333H11.9193C12.6562 1.58394 13.383 1.7552 14.0426 2.08367L19.0396 4.59167C19.2604 4.69763 19.5024 4.75178 19.7473 4.75H30.0833C32.1822 4.75251 34.1944 5.5874 35.6785 7.07151C37.1626 8.55563 37.9975 10.5678 38 12.6667ZM3.16667 9.5V11.0833H34.542C34.2157 10.1604 33.6122 9.36081 32.8141 8.79397C32.016 8.22713 31.0622 7.92072 30.0833 7.91667H19.7473C19.0104 7.91605 18.2837 7.7448 17.6241 7.41633L12.6271 4.91625C12.4069 4.80755 12.1648 4.75068 11.9193 4.75H7.91667C6.65689 4.75 5.44871 5.25044 4.55791 6.14124C3.66711 7.03204 3.16667 8.24022 3.16667 9.5ZM34.8333 28.5V14.25H3.16667V28.5C3.16667 29.7598 3.66711 30.968 4.55791 31.8588C5.44871 32.7496 6.65689 33.25 7.91667 33.25H30.0833C31.3431 33.25 32.5513 32.7496 33.4421 31.8588C34.3329 30.968 34.8333 29.7598 34.8333 28.5Z" fill="#9A9A9A"/>
</g>
<defs>
<clipPath id="clip0_2_2">
<rect width="38" height="38" fill="white"/>
</clipPath>
</defs>
</svg>
