<svg width="45" height="44" viewBox="0 0 45 44" fill="none" xmlns="http://www.w3.org/2000/svg">
<g clip-path="url(#clip0_8_27)">
<path d="M43.4318 8.91243C42.4246 6.94589 40.7079 5.49197 38.5906 4.81517L25.3629 0.590216C23.2328 -0.0902282 20.9647 0.103142 18.9816 1.13749C16.9984 2.17184 15.552 3.91217 14.9069 6.04107L14.4676 7.48952H8.41522C3.85712 7.49134 0.146301 11.1745 0.146301 15.7005V35.7672C0.146301 40.2931 3.85712 43.9763 8.41706 43.9763H21.2827C24.194 43.9763 26.7469 42.4676 28.2209 40.2037C28.6602 40.2749 29.0976 40.3387 29.5314 40.3387C33.0272 40.3387 36.2325 38.1204 37.3721 34.7055L43.9097 15.2079C44.6081 13.1155 44.439 10.879 43.4318 8.91243ZM21.2827 42.152H8.41706C4.86982 42.152 1.98425 39.288 1.98425 35.7672V15.7005C1.98425 12.1797 4.86982 9.31559 8.41706 9.31559H21.2827C24.8299 9.31559 27.7155 12.1797 27.7155 15.7005V35.7672C27.7155 39.288 24.8299 42.152 21.2827 42.152ZM42.1636 14.6351L35.626 34.1308C34.6887 36.9456 31.9538 38.6841 29.0535 38.4725C29.3549 37.6206 29.5516 36.7194 29.5516 35.7672V15.7005C29.5516 11.1745 25.8408 7.49134 21.2809 7.49134H16.3846L16.6639 6.56827C17.1657 4.91186 18.2923 3.55827 19.8344 2.75377C21.3764 1.94928 23.1445 1.79969 24.7968 2.32872L38.0245 6.55368C39.6713 7.07906 41.0075 8.21009 41.7905 9.74064C42.5735 11.2694 42.7058 13.0079 42.1636 14.6351Z" fill="black"/>
</g>
<defs>
<clipPath id="clip0_8_27">
<rect width="44.1107" height="43.7819" fill="white" transform="translate(0.146301 0.194092)"/>
</clipPath>
</defs>
</svg>
