<svg width="38" height="38" viewBox="0 0 38 38" fill="none" xmlns="http://www.w3.org/2000/svg">
<g clip-path="url(#clip0_2_63)">
<path d="M32.3 4.75H5.7L5.225 5.225C1.9 9.025 0 13.9333 0 19C0 27.7083 3.48333 34.8333 7.91667 34.8333C11.4 34.8333 13.1417 29.7667 13.9333 26.9167H24.0667C24.8583 29.7667 26.6 34.8333 30.0833 34.8333C34.5167 34.8333 38 27.7083 38 19C38 13.9333 36.1 9.025 32.775 5.225L32.3 4.75ZM30.0833 31.6667C29.1333 31.6667 27.55 28.3417 26.9167 25.0167L26.6 23.75H11.4L11.0833 25.0167C10.45 28.3417 8.86667 31.6667 7.91667 31.6667C6.33333 31.6667 3.16667 26.7583 3.16667 19C3.16667 15.0417 4.59167 11.0833 7.125 7.91667H31.0333C33.5667 11.0833 34.8333 15.0417 34.8333 19C34.8333 26.7583 31.6667 31.6667 30.0833 31.6667Z" fill="#9A9A9A"/>
<path d="M12.6667 11.0833H9.50001V14.25H6.33334V17.4167H9.50001V20.5833H12.6667V17.4167H15.8333V14.25H12.6667V11.0833Z" fill="#9A9A9A"/>
<path d="M29.2917 15.8333C30.6033 15.8333 31.6667 14.77 31.6667 13.4583C31.6667 12.1467 30.6033 11.0833 29.2917 11.0833C27.98 11.0833 26.9167 12.1467 26.9167 13.4583C26.9167 14.77 27.98 15.8333 29.2917 15.8333Z" fill="#9A9A9A"/>
<path d="M24.5417 20.5833C25.8533 20.5833 26.9167 19.52 26.9167 18.2083C26.9167 16.8967 25.8533 15.8333 24.5417 15.8333C23.23 15.8333 22.1667 16.8967 22.1667 18.2083C22.1667 19.52 23.23 20.5833 24.5417 20.5833Z" fill="#9A9A9A"/>
</g>
<defs>
<clipPath id="clip0_2_63">
<rect width="38" height="38" fill="white"/>
</clipPath>
</defs>
</svg>
