<svg width="38" height="38" viewBox="0 0 38 38" fill="none" xmlns="http://www.w3.org/2000/svg">
<path d="M34.9932 7.97028C33.5751 5.44921 31.0541 4.03112 28.2178 4.03112H9.46724C6.63105 4.03112 4.10991 5.44921 2.69181 7.97028C0.958582 11.1216 0.0131836 14.5881 0.0131836 18.2122C0.0131836 26.8784 3.47964 33.969 7.89158 33.969C10.2551 33.969 12.1459 31.763 13.564 27.1935C13.7216 26.5633 14.3519 26.0906 15.1397 26.0906H22.8605C23.4908 26.0906 24.1211 26.5633 24.4362 27.1935C25.8543 31.763 27.7451 33.969 30.1087 33.969C34.5206 33.969 37.9871 26.8784 37.9871 18.2122C37.6719 14.5881 36.7265 11.1216 34.9932 7.97028ZM14.1943 16.6365H12.6186V18.2122C12.6186 19.1576 11.9884 19.7878 11.043 19.7878C10.0976 19.7878 9.46732 19.1576 9.46732 18.2122V16.6365H7.89165C6.94625 16.6365 6.31599 16.0062 6.31599 15.0608C6.31599 14.1154 6.94625 13.4852 7.89165 13.4852H9.46732V11.9095C9.46732 10.9641 10.0976 10.3338 11.043 10.3338C11.9884 10.3338 12.6186 10.9641 12.6186 11.9095V13.4852H14.1943C15.1397 13.4852 15.77 14.1154 15.77 15.0608C15.77 16.0062 15.1397 16.6365 14.1943 16.6365ZM24.5938 19.7878C23.3332 19.7878 22.2303 18.6849 22.2303 17.4243C22.2303 16.1638 23.3332 15.0608 24.5938 15.0608C25.8543 15.0608 26.9573 16.1638 26.9573 17.4243C26.9573 18.6849 25.6967 19.7878 24.5938 19.7878ZM29.1633 15.0608C28.0603 15.0608 26.7998 13.9579 26.7998 12.6973C26.7998 11.4368 28.0603 10.3338 29.1633 10.3338C30.2662 10.3338 31.5268 11.4368 31.5268 12.6973C31.5268 13.9579 30.4238 15.0608 29.1633 15.0608Z" fill="black"/>
</svg>
