<!-- icon666.com - MILLIONS OF FREE VECTOR ICONS --><svg version="1.1" id="Layer_1" xmlns="http://www.w3.org/2000/svg" xmlns:xlink="http://www.w3.org/1999/xlink" x="0px" y="0px" viewBox="0 0 302.817 302.817" style="enable-background:new 0 0 302.817 302.817;" xml:space="preserve"><path id="XMLID_4_" d="M240.71,189.854c-0.419-5.706-1.189-11.419-2.321-17.11c-12.312-61.89-63.914-106.146-123.7-112.005 l35.131-35.132c5.858-5.858,5.858-15.355,0-21.213c-5.857-5.858-15.355-5.858-21.213,0L66.124,66.877 c-0.002,0.002-0.004,0.005-0.006,0.007c-0.356,0.357-0.694,0.729-1.012,1.119c-0.144,0.175-0.266,0.36-0.399,0.54 c-0.154,0.208-0.316,0.41-0.46,0.626c-0.188,0.281-0.353,0.572-0.519,0.862c-0.074,0.129-0.157,0.253-0.228,0.384 c-0.151,0.283-0.28,0.574-0.412,0.864c-0.07,0.154-0.149,0.304-0.214,0.46c-0.105,0.254-0.19,0.512-0.281,0.769 c-0.072,0.207-0.152,0.411-0.217,0.621c-0.063,0.209-0.109,0.42-0.163,0.631c-0.068,0.266-0.142,0.53-0.195,0.801 c-0.032,0.165-0.05,0.331-0.077,0.496c-0.052,0.317-0.106,0.633-0.138,0.955c-0.014,0.141-0.014,0.283-0.023,0.424 c-0.024,0.341-0.049,0.682-0.049,1.027c-0.001,0.225,0.021,0.448,0.03,0.672c0.012,0.259,0.012,0.516,0.037,0.776 c0.047,0.498,0.121,0.993,0.218,1.484c0.001,0.004,0.001,0.009,0.002,0.013c0.011,0.055,0.029,0.107,0.041,0.162 c0.09,0.429,0.193,0.855,0.321,1.276c0.046,0.15,0.104,0.294,0.154,0.442c0.108,0.316,0.214,0.632,0.342,0.942 c0.084,0.203,0.184,0.395,0.275,0.592c0.113,0.244,0.223,0.49,0.35,0.729c0.129,0.24,0.273,0.467,0.413,0.698 c0.112,0.185,0.218,0.374,0.339,0.555c0.187,0.28,0.391,0.544,0.594,0.809c0.096,0.124,0.182,0.253,0.281,0.374 c0.28,0.341,0.577,0.665,0.885,0.979c0.039,0.039,0.071,0.083,0.11,0.122l0.02,0.02c0.016,0.015,0.03,0.03,0.045,0.045l62.42,62.421 c2.929,2.929,6.768,4.394,10.606,4.394c3.838,0,7.678-1.465,10.607-4.394c5.858-5.857,5.858-15.355,0-21.213l-38.836-38.836 c47.303,4.297,88.26,39.205,97.979,88.071c1.334,6.707,2.029,13.454,2.109,20.161c0.309,25.711-8.421,50.841-24.855,70.938 c-2.143,2.621-4.418,5.157-6.82,7.597c-5.813,5.903-5.738,15.4,0.164,21.212c2.557,2.518,5.787,3.93,9.1,4.244 c0.473,0.045,0.948,0.067,1.423,0.067c3.878,0,7.754-1.495,10.689-4.476C229.309,269.363,243.64,229.794,240.71,189.854z"></path></svg>