<svg width="28" height="28" viewBox="0 0 57 57" fill="none" xmlns="http://www.w3.org/2000/svg">
<g clip-path="url(#clip0_8_231)">
<path d="M52.25 23.75H33.25V4.75C33.25 3.49022 32.7496 2.28204 31.8588 1.39124C30.968 0.500446 29.7598 0 28.5 0C27.2402 0 26.032 0.500446 25.1412 1.39124C24.2504 2.28204 23.75 3.49022 23.75 4.75V23.75H4.75C3.49022 23.75 2.28204 24.2504 1.39124 25.1412C0.500446 26.032 0 27.2402 0 28.5C0 29.7598 0.500446 30.968 1.39124 31.8588C2.28204 32.7496 3.49022 33.25 4.75 33.25H23.75V52.25C23.75 53.5098 24.2504 54.718 25.1412 55.6088C26.032 56.4996 27.2402 57 28.5 57C29.7598 57 30.968 56.4996 31.8588 55.6088C32.7496 54.718 33.25 53.5098 33.25 52.25V33.25H52.25C53.5098 33.25 54.718 32.7496 55.6088 31.8588C56.4996 30.968 57 29.7598 57 28.5C57 27.2402 56.4996 26.032 55.6088 25.1412C54.718 24.2504 53.5098 23.75 52.25 23.75Z" fill="white"/>
</g>
<defs>
<clipPath id="clip0_8_231">
<rect width="57" height="57" fill="white"/>
</clipPath>
</defs>
</svg>
