<svg width="512" height="512" viewBox="0 0 512 512" fill="none" xmlns="http://www.w3.org/2000/svg">
<g clip-path="url(#clip0_559_111)">
<path d="M104.064 119.595L20.4586 203.2C6.8826 217.426 -0.691915 236.335 -0.691915 256C-0.691915 275.665 6.8826 294.574 20.4586 308.8L104.064 392.405C110.064 398.408 118.203 401.782 126.691 401.784C135.179 401.786 143.32 398.416 149.323 392.416C155.326 386.416 158.699 378.277 158.701 369.789C158.703 361.301 155.334 353.16 149.333 347.157L90.0266 287.829L479.36 287.339C487.847 287.339 495.986 283.967 501.987 277.966C507.989 271.965 511.36 263.826 511.36 255.339C511.36 246.852 507.989 238.712 501.987 232.711C495.986 226.71 487.847 223.339 479.36 223.339L90.432 223.829L149.333 164.843C155.162 158.807 158.388 150.724 158.315 142.334C158.242 133.944 154.877 125.918 148.943 119.984C143.01 114.051 134.984 110.686 126.594 110.613C118.204 110.54 110.099 113.766 104.064 119.595Z" fill="black"/>
</g>
<defs>
<clipPath id="clip0_559_111">
<rect width="512" height="512" fill="white" transform="matrix(-1 0 0 -1 512 512)"/>
</clipPath>
</defs>
</svg>
