<svg width="57" height="57" viewBox="0 0 57 57" fill="none" xmlns="http://www.w3.org/2000/svg">
<g clip-path="url(#clip0_9_233)">
<path d="M16.625 0H9.5C6.98044 0 4.56408 1.00089 2.78249 2.78249C1.00089 4.56408 0 6.98044 0 9.5L0 16.625C0 19.1446 1.00089 21.5609 2.78249 23.3425C4.56408 25.1241 6.98044 26.125 9.5 26.125H16.625C19.1446 26.125 21.5609 25.1241 23.3425 23.3425C25.1241 21.5609 26.125 19.1446 26.125 16.625V9.5C26.125 6.98044 25.1241 4.56408 23.3425 2.78249C21.5609 1.00089 19.1446 0 16.625 0ZM21.375 16.625C21.375 17.8848 20.8746 19.093 19.9838 19.9838C19.093 20.8746 17.8848 21.375 16.625 21.375H9.5C8.24022 21.375 7.03204 20.8746 6.14124 19.9838C5.25044 19.093 4.75 17.8848 4.75 16.625V9.5C4.75 8.24022 5.25044 7.03204 6.14124 6.14124C7.03204 5.25044 8.24022 4.75 9.5 4.75H16.625C17.8848 4.75 19.093 5.25044 19.9838 6.14124C20.8746 7.03204 21.375 8.24022 21.375 9.5V16.625Z" fill="white"/>
<path d="M16.625 30.875H9.5C6.98044 30.875 4.56408 31.8759 2.78249 33.6575C1.00089 35.4391 0 37.8554 0 40.375L0 47.5C0 50.0196 1.00089 52.4359 2.78249 54.2175C4.56408 55.9991 6.98044 57 9.5 57H16.625C19.1446 57 21.5609 55.9991 23.3425 54.2175C25.1241 52.4359 26.125 50.0196 26.125 47.5V40.375C26.125 37.8554 25.1241 35.4391 23.3425 33.6575C21.5609 31.8759 19.1446 30.875 16.625 30.875ZM21.375 47.5C21.375 48.7598 20.8746 49.968 19.9838 50.8588C19.093 51.7496 17.8848 52.25 16.625 52.25H9.5C8.24022 52.25 7.03204 51.7496 6.14124 50.8588C5.25044 49.968 4.75 48.7598 4.75 47.5V40.375C4.75 39.1152 5.25044 37.907 6.14124 37.0162C7.03204 36.1254 8.24022 35.625 9.5 35.625H16.625C17.8848 35.625 19.093 36.1254 19.9838 37.0162C20.8746 37.907 21.375 39.1152 21.375 40.375V47.5Z" fill="white"/>
<path d="M47.5 30.875H40.375C37.8554 30.875 35.4391 31.8759 33.6575 33.6575C31.8759 35.4391 30.875 37.8554 30.875 40.375V47.5C30.875 50.0196 31.8759 52.4359 33.6575 54.2175C35.4391 55.9991 37.8554 57 40.375 57H47.5C50.0196 57 52.4359 55.9991 54.2175 54.2175C55.9991 52.4359 57 50.0196 57 47.5V40.375C57 37.8554 55.9991 35.4391 54.2175 33.6575C52.4359 31.8759 50.0196 30.875 47.5 30.875ZM52.25 47.5C52.25 48.7598 51.7496 49.968 50.8588 50.8588C49.968 51.7496 48.7598 52.25 47.5 52.25H40.375C39.1152 52.25 37.907 51.7496 37.0162 50.8588C36.1254 49.968 35.625 48.7598 35.625 47.5V40.375C35.625 39.1152 36.1254 37.907 37.0162 37.0162C37.907 36.1254 39.1152 35.625 40.375 35.625H47.5C48.7598 35.625 49.968 36.1254 50.8588 37.0162C51.7496 37.907 52.25 39.1152 52.25 40.375V47.5Z" fill="white"/>
<path d="M33.25 16.625H40.375V23.75C40.375 24.3799 40.6252 24.984 41.0706 25.4294C41.516 25.8748 42.1201 26.125 42.75 26.125C43.3799 26.125 43.984 25.8748 44.4294 25.4294C44.8748 24.984 45.125 24.3799 45.125 23.75V16.625H52.25C52.8799 16.625 53.484 16.3748 53.9294 15.9294C54.3748 15.484 54.625 14.8799 54.625 14.25C54.625 13.6201 54.3748 13.016 53.9294 12.5706C53.484 12.1252 52.8799 11.875 52.25 11.875H45.125V4.75C45.125 4.12011 44.8748 3.51602 44.4294 3.07062C43.984 2.62522 43.3799 2.375 42.75 2.375C42.1201 2.375 41.516 2.62522 41.0706 3.07062C40.6252 3.51602 40.375 4.12011 40.375 4.75V11.875H33.25C32.6201 11.875 32.016 12.1252 31.5706 12.5706C31.1252 13.016 30.875 13.6201 30.875 14.25C30.875 14.8799 31.1252 15.484 31.5706 15.9294C32.016 16.3748 32.6201 16.625 33.25 16.625Z" fill="white"/>
</g>
<defs>
<clipPath id="clip0_9_233">
<rect width="57" height="57" fill="white"/>
</clipPath>
</defs>
</svg>
