<svg width="58" height="58" viewBox="0 0 117 117" fill="none" xmlns="http://www.w3.org/2000/svg">
<path d="M115.5 58.5C115.5 89.9802 89.9802 115.5 58.5 115.5C27.0198 115.5 1.5 89.9802 1.5 58.5C1.5 27.0198 27.0198 1.5 58.5 1.5C89.9802 1.5 115.5 27.0198 115.5 58.5Z" stroke="black" stroke-width="3"/>
<g clip-path="url(#clip0_154_8)">
<path d="M49.3679 22.5211C43.5843 22.5211 38.7443 26.5697 37.4963 31.9576C32.1084 33.2056 28.0598 38.0456 28.0598 43.8292V43.8901C24.2548 46.7515 21.9718 51.2262 21.9718 56.0053C21.9718 58.7144 22.7024 61.3019 24.0722 63.6153C22.7024 65.9288 21.9718 68.5162 21.9718 71.2253C21.9718 76.3697 24.5897 81.0879 28.8817 83.9189C31.0734 90.8592 37.4354 95.5775 44.8019 95.5775C44.8323 95.5775 44.8932 95.5775 44.9237 95.5775C50.8291 95.547 55.456 90.4026 55.456 84.4972V28.6396C55.456 25.2607 52.7468 22.5211 49.3679 22.5211ZM61.544 28.6396V84.4972C61.544 90.4026 66.1709 95.547 72.0763 95.5775C72.1067 95.5775 72.1676 95.5775 72.198 95.5775C79.5645 95.5775 85.9265 90.8288 88.1182 83.9189C92.4103 81.1184 95.0281 76.3697 95.0281 71.2253C95.0281 68.5162 94.2976 65.9288 92.9278 63.6153C94.2976 61.3019 95.0281 58.7144 95.0281 56.0053C95.0281 51.2262 92.7451 46.7515 88.9401 43.8901V43.8292C88.9401 38.0456 84.8916 33.2056 79.5037 31.9576C78.2556 26.5697 73.4156 22.5211 67.632 22.5211C64.2532 22.5211 61.544 25.2607 61.544 28.6396Z" fill="black"/>
</g>
<defs>
<clipPath id="clip0_154_8">
<rect width="73.0563" height="73.0563" fill="white" transform="translate(21.9718 22.5211)"/>
</clipPath>
</defs>
</svg>
