<svg width="1920" height="136" viewBox="0 0 1920 136" fill="none" xmlns="http://www.w3.org/2000/svg">
<g filter="url(#filter0_d_431_4)">
<rect x="-3" y="-2" width="1923" height="130" fill="white"/>
</g>
<path d="M704.103 127L880.378 127" stroke="#3646D2" stroke-width="3"/>
<g clip-path="url(#clip0_431_4)">
<path d="M746.517 54.8933L707.108 55.0691V53.5C707.11 51.4011 707.981 49.389 709.529 47.9048C711.077 46.4207 713.176 45.5858 715.365 45.5833H719.54C720.309 45.5839 721.067 45.7552 721.755 46.0837L726.967 48.5917C727.197 48.6975 727.45 48.7516 727.705 48.75H738.486C740.352 48.7536 742.161 49.3628 743.62 50.4783C745.078 51.5939 746.099 53.1501 746.517 54.8933ZM746.743 58.06V72.5C746.741 74.5989 745.87 76.611 744.322 78.0952C742.774 79.5793 740.675 80.4142 738.486 80.4167H715.365C713.176 80.4142 711.077 79.5793 709.529 78.0952C707.981 76.611 707.11 74.5989 707.108 72.5V58.2358L746.743 58.06ZM733.532 69.3333C733.532 68.9134 733.358 68.5107 733.048 68.2137C732.738 67.9168 732.318 67.75 731.88 67.75H728.577V64.5833C728.577 64.1634 728.403 63.7607 728.093 63.4637C727.784 63.1668 727.364 63 726.926 63C726.488 63 726.067 63.1668 725.758 63.4637C725.448 63.7607 725.274 64.1634 725.274 64.5833V67.75H721.971C721.533 67.75 721.113 67.9168 720.803 68.2137C720.494 68.5107 720.32 68.9134 720.32 69.3333C720.32 69.7533 720.494 70.156 720.803 70.4529C721.113 70.7499 721.533 70.9167 721.971 70.9167H725.274V74.0833C725.274 74.5033 725.448 74.906 725.758 75.2029C726.067 75.4999 726.488 75.6667 726.926 75.6667C727.364 75.6667 727.784 75.4999 728.093 75.2029C728.403 74.906 728.577 74.5033 728.577 74.0833V70.9167H731.88C732.318 70.9167 732.738 70.7499 733.048 70.4529C733.358 70.156 733.532 69.7533 733.532 69.3333Z" fill="black"/>
</g>
<path d="M755.82 50.7273H759.184L767.093 70.0455H767.365L775.274 50.7273H778.638V74H776.002V56.3182H775.774L768.502 74H765.956L758.684 56.3182H758.456V74H755.82V50.7273ZM791.016 74.3636C789.44 74.3636 788.058 73.9886 786.868 73.2386C785.686 72.4886 784.762 71.4394 784.095 70.0909C783.436 68.7424 783.107 67.1667 783.107 65.3636C783.107 63.5455 783.436 61.9583 784.095 60.6023C784.762 59.2462 785.686 58.1932 786.868 57.4432C788.058 56.6932 789.44 56.3182 791.016 56.3182C792.592 56.3182 793.97 56.6932 795.152 57.4432C796.342 58.1932 797.266 59.2462 797.925 60.6023C798.592 61.9583 798.925 63.5455 798.925 65.3636C798.925 67.1667 798.592 68.7424 797.925 70.0909C797.266 71.4394 796.342 72.4886 795.152 73.2386C793.97 73.9886 792.592 74.3636 791.016 74.3636ZM791.016 71.9545C792.213 71.9545 793.198 71.6477 793.97 71.0341C794.743 70.4205 795.315 69.6136 795.686 68.6136C796.058 67.6136 796.243 66.5303 796.243 65.3636C796.243 64.197 796.058 63.1098 795.686 62.1023C795.315 61.0947 794.743 60.2803 793.97 59.6591C793.198 59.0379 792.213 58.7273 791.016 58.7273C789.819 58.7273 788.834 59.0379 788.061 59.6591C787.289 60.2803 786.717 61.0947 786.345 62.1023C785.974 63.1098 785.789 64.197 785.789 65.3636C785.789 66.5303 785.974 67.6136 786.345 68.6136C786.717 69.6136 787.289 70.4205 788.061 71.0341C788.834 71.6477 789.819 71.9545 791.016 71.9545ZM801.155 79V71.5H802.61C802.966 71.1288 803.273 70.7273 803.53 70.2955C803.788 69.8636 804.011 69.3523 804.201 68.7614C804.398 68.1629 804.564 67.4356 804.701 66.5795C804.837 65.7159 804.958 64.6742 805.064 63.4545L805.655 56.5455H816.746V71.5H819.428V79H816.746V74H803.837V79H801.155ZM805.655 71.5H814.064V59.0455H808.155L807.701 63.4545C807.511 65.2803 807.276 66.875 806.996 68.2386C806.716 69.6023 806.269 70.6894 805.655 71.5ZM824.715 80.5455C824.26 80.5455 823.855 80.5076 823.499 80.4318C823.143 80.3636 822.897 80.2955 822.76 80.2273L823.442 77.8636C824.094 78.0303 824.669 78.0909 825.169 78.0455C825.669 78 826.113 77.7765 826.499 77.375C826.893 76.9811 827.253 76.3409 827.578 75.4545L828.078 74.0909L821.624 56.5455H824.533L829.351 70.4545H829.533L834.351 56.5455H837.26L829.851 76.5455C829.518 77.447 829.105 78.1932 828.613 78.7841C828.12 79.3826 827.548 79.8258 826.897 80.1136C826.253 80.4015 825.525 80.5455 824.715 80.5455ZM837.786 74V71.5H838.422C838.945 71.5 839.38 71.3977 839.729 71.1932C840.077 70.9811 840.358 70.6136 840.57 70.0909C840.79 69.5606 840.956 68.8258 841.07 67.8864C841.191 66.9394 841.278 65.7348 841.331 64.2727L841.649 56.5455H853.286V74H850.604V59.0455H844.195L843.922 65.2727C843.862 66.7045 843.733 67.9659 843.536 69.0568C843.346 70.1402 843.055 71.0492 842.661 71.7841C842.274 72.5189 841.759 73.072 841.115 73.4432C840.471 73.8144 839.665 74 838.695 74H837.786ZM860.888 70.0455L869.297 56.5455H872.388V74H869.706V60.5L861.343 74H858.206V56.5455H860.888V70.0455Z" fill="black"/>
<g clip-path="url(#clip1_431_4)">
<path d="M463.027 47.75H436.385L435.91 48.225C432.579 52.025 430.677 56.9333 430.677 62C430.677 70.7083 434.165 77.8333 438.606 77.8333C442.094 77.8333 443.839 72.7667 444.632 69.9167H454.781C455.574 72.7667 457.318 77.8333 460.807 77.8333C465.247 77.8333 468.736 70.7083 468.736 62C468.736 56.9333 466.833 52.025 463.503 48.225L463.027 47.75ZM460.807 74.6667C459.855 74.6667 458.27 71.3417 457.635 68.0167L457.318 66.75H442.094L441.777 68.0167C441.143 71.3417 439.557 74.6667 438.606 74.6667C437.02 74.6667 433.848 69.7583 433.848 62C433.848 58.0417 435.275 54.0833 437.813 50.9167H461.758C464.296 54.0833 465.564 58.0417 465.564 62C465.564 69.7583 462.393 74.6667 460.807 74.6667Z" fill="#9A9A9A"/>
<path d="M443.363 54.0833H440.191V57.25H437.02V60.4167H440.191V63.5833H443.363V60.4167H446.535V57.25H443.363V54.0833Z" fill="#9A9A9A"/>
<path d="M460.014 58.8333C461.328 58.8333 462.393 57.77 462.393 56.4583C462.393 55.1467 461.328 54.0833 460.014 54.0833C458.7 54.0833 457.635 55.1467 457.635 56.4583C457.635 57.77 458.7 58.8333 460.014 58.8333Z" fill="#9A9A9A"/>
<path d="M455.257 63.5833C456.57 63.5833 457.635 62.52 457.635 61.2083C457.635 59.8967 456.57 58.8333 455.257 58.8333C453.943 58.8333 452.878 59.8967 452.878 61.2083C452.878 62.52 453.943 63.5833 455.257 63.5833Z" fill="#9A9A9A"/>
</g>
<path d="M476.291 51.2273V48.7273H493.745V51.2273H486.427V72H483.609V51.2273H476.291ZM495.919 78.5455V54.5455H498.51V57.3182H498.828C499.025 57.0152 499.297 56.6288 499.646 56.1591C500.002 55.6818 500.51 55.2576 501.169 54.8864C501.835 54.5076 502.737 54.3182 503.873 54.3182C505.343 54.3182 506.638 54.6856 507.76 55.4205C508.881 56.1553 509.756 57.197 510.385 58.5455C511.013 59.8939 511.328 61.4848 511.328 63.3182C511.328 65.1667 511.013 66.7689 510.385 68.125C509.756 69.4735 508.885 70.5189 507.771 71.2614C506.657 71.9962 505.373 72.3636 503.919 72.3636C502.797 72.3636 501.9 72.178 501.225 71.8068C500.551 71.428 500.032 71 499.669 70.5227C499.305 70.0379 499.025 69.6364 498.828 69.3182H498.6V78.5455H495.919ZM498.555 63.2727C498.555 64.5909 498.748 65.7538 499.135 66.7614C499.521 67.7614 500.085 68.5455 500.828 69.1136C501.57 69.6742 502.479 69.9545 503.555 69.9545C504.676 69.9545 505.612 69.6591 506.362 69.0682C507.119 68.4697 507.688 67.6667 508.066 66.6591C508.453 65.6439 508.646 64.5152 508.646 63.2727C508.646 62.0455 508.457 60.9394 508.078 59.9545C507.707 58.9621 507.142 58.178 506.385 57.6023C505.635 57.0189 504.691 56.7273 503.555 56.7273C502.464 56.7273 501.547 57.0038 500.805 57.5568C500.063 58.1023 499.502 58.8674 499.123 59.8523C498.744 60.8295 498.555 61.9697 498.555 63.2727ZM522.737 72.3636C521.055 72.3636 519.604 71.9924 518.385 71.25C517.172 70.5 516.237 69.4545 515.578 68.1136C514.926 66.7652 514.6 65.197 514.6 63.4091C514.6 61.6212 514.926 60.0455 515.578 58.6818C516.237 57.3106 517.154 56.2424 518.328 55.4773C519.51 54.7045 520.888 54.3182 522.464 54.3182C523.373 54.3182 524.271 54.4697 525.157 54.7727C526.044 55.0758 526.85 55.5682 527.578 56.25C528.305 56.9242 528.885 57.8182 529.316 58.9318C529.748 60.0455 529.964 61.4167 529.964 63.0455V64.1818H516.51V61.8636H527.237C527.237 60.8788 527.04 60 526.646 59.2273C526.26 58.4545 525.707 57.8447 524.987 57.3977C524.275 56.9508 523.434 56.7273 522.464 56.7273C521.396 56.7273 520.472 56.9924 519.691 57.5227C518.919 58.0455 518.324 58.7273 517.907 59.5682C517.491 60.4091 517.282 61.3106 517.282 62.2727V63.8182C517.282 65.1364 517.51 66.2538 517.964 67.1705C518.426 68.0795 519.066 68.7727 519.885 69.25C520.703 69.7197 521.654 69.9545 522.737 69.9545C523.441 69.9545 524.078 69.8561 524.646 69.6591C525.222 69.4545 525.718 69.1515 526.135 68.75C526.551 68.3409 526.873 67.8333 527.1 67.2273L529.691 67.9545C529.419 68.8333 528.96 69.6061 528.316 70.2727C527.672 70.9318 526.877 71.447 525.93 71.8182C524.983 72.1818 523.919 72.3636 522.737 72.3636ZM545.725 62.0455V64.5455H536.089V62.0455H545.725ZM536.725 54.5455V72H534.044V54.5455H536.725ZM547.771 54.5455V72H545.089V54.5455H547.771ZM555.35 68.0455L563.76 54.5455H566.85V72H564.169V58.5L555.805 72H552.669V54.5455H555.35V68.0455ZM571.762 78.5455V54.5455H574.353V57.3182H574.671C574.868 57.0152 575.141 56.6288 575.49 56.1591C575.846 55.6818 576.353 55.2576 577.012 54.8864C577.679 54.5076 578.581 54.3182 579.717 54.3182C581.187 54.3182 582.482 54.6856 583.603 55.4205C584.725 56.1553 585.6 57.197 586.228 58.5455C586.857 59.8939 587.171 61.4848 587.171 63.3182C587.171 65.1667 586.857 66.7689 586.228 68.125C585.6 69.4735 584.728 70.5189 583.615 71.2614C582.501 71.9962 581.217 72.3636 579.762 72.3636C578.641 72.3636 577.743 72.178 577.069 71.8068C576.395 71.428 575.876 71 575.512 70.5227C575.149 70.0379 574.868 69.6364 574.671 69.3182H574.444V78.5455H571.762ZM574.399 63.2727C574.399 64.5909 574.592 65.7538 574.978 66.7614C575.365 67.7614 575.929 68.5455 576.671 69.1136C577.414 69.6742 578.323 69.9545 579.399 69.9545C580.52 69.9545 581.456 69.6591 582.206 69.0682C582.963 68.4697 583.531 67.6667 583.91 66.6591C584.296 65.6439 584.49 64.5152 584.49 63.2727C584.49 62.0455 584.3 60.9394 583.921 59.9545C583.55 58.9621 582.986 58.178 582.228 57.6023C581.478 57.0189 580.535 56.7273 579.399 56.7273C578.308 56.7273 577.391 57.0038 576.649 57.5568C575.906 58.1023 575.346 58.8674 574.967 59.8523C574.588 60.8295 574.399 61.9697 574.399 63.2727ZM598.353 72.3636C596.778 72.3636 595.395 71.9886 594.206 71.2386C593.024 70.4886 592.1 69.4394 591.433 68.0909C590.774 66.7424 590.444 65.1667 590.444 63.3636C590.444 61.5455 590.774 59.9583 591.433 58.6023C592.1 57.2462 593.024 56.1932 594.206 55.4432C595.395 54.6932 596.778 54.3182 598.353 54.3182C599.929 54.3182 601.308 54.6932 602.49 55.4432C603.679 56.1932 604.603 57.2462 605.262 58.6023C605.929 59.9583 606.262 61.5455 606.262 63.3636C606.262 65.1667 605.929 66.7424 605.262 68.0909C604.603 69.4394 603.679 70.4886 602.49 71.2386C601.308 71.9886 599.929 72.3636 598.353 72.3636ZM598.353 69.9545C599.55 69.9545 600.535 69.6477 601.308 69.0341C602.081 68.4205 602.653 67.6136 603.024 66.6136C603.395 65.6136 603.581 64.5303 603.581 63.3636C603.581 62.197 603.395 61.1098 603.024 60.1023C602.653 59.0947 602.081 58.2803 601.308 57.6591C600.535 57.0379 599.55 56.7273 598.353 56.7273C597.156 56.7273 596.171 57.0379 595.399 57.6591C594.626 58.2803 594.054 59.0947 593.683 60.1023C593.312 61.1098 593.126 62.197 593.126 63.3636C593.126 64.5303 593.312 65.6136 593.683 66.6136C594.054 67.6136 594.626 68.4205 595.399 69.0341C596.171 69.6477 597.156 69.9545 598.353 69.9545ZM610.356 72V54.5455H617.493C619.371 54.5455 620.864 54.9697 621.97 55.8182C623.076 56.6667 623.629 57.7879 623.629 59.1818C623.629 60.2424 623.314 61.0644 622.686 61.6477C622.057 62.2235 621.25 62.6136 620.265 62.8182C620.909 62.9091 621.534 63.1364 622.14 63.5C622.754 63.8636 623.261 64.3636 623.663 65C624.064 65.6288 624.265 66.4015 624.265 67.3182C624.265 68.2121 624.038 69.0114 623.583 69.7159C623.129 70.4205 622.477 70.9773 621.629 71.3864C620.78 71.7955 619.765 72 618.583 72H610.356ZM612.902 69.5455H618.583C619.508 69.5455 620.231 69.3258 620.754 68.8864C621.277 68.447 621.538 67.8485 621.538 67.0909C621.538 66.1894 621.277 65.4811 620.754 64.9659C620.231 64.4432 619.508 64.1818 618.583 64.1818H612.902V69.5455ZM612.902 61.8636H617.493C618.212 61.8636 618.83 61.7652 619.345 61.5682C619.86 61.3636 620.254 61.0758 620.527 60.7045C620.807 60.3258 620.947 59.8788 620.947 59.3636C620.947 58.6288 620.64 58.053 620.027 57.6364C619.413 57.2121 618.568 57 617.493 57H612.902V61.8636ZM628.325 72V54.5455H631.007V62.1364H632.779L639.052 54.5455H642.507L635.461 62.9545L642.598 72H639.143L633.416 64.6364H631.007V72H628.325ZM648.194 68.0455L656.603 54.5455H659.694V72H657.012V58.5L648.649 72H645.512V54.5455H648.194V68.0455Z" fill="#9A9A9A"/>
<path d="M320.925 63.3636C320.925 65.8182 320.482 67.9394 319.595 69.7273C318.709 71.5152 317.493 72.8939 315.948 73.8636C314.402 74.8333 312.637 75.3182 310.652 75.3182C308.667 75.3182 306.902 74.8333 305.357 73.8636C303.811 72.8939 302.595 71.5152 301.709 69.7273C300.823 67.9394 300.38 65.8182 300.38 63.3636C300.38 60.9091 300.823 58.7879 301.709 57C302.595 55.2121 303.811 53.8333 305.357 52.8636C306.902 51.8939 308.667 51.4091 310.652 51.4091C312.637 51.4091 314.402 51.8939 315.948 52.8636C317.493 53.8333 318.709 55.2121 319.595 57C320.482 58.7879 320.925 60.9091 320.925 63.3636ZM318.198 63.3636C318.198 61.3485 317.861 59.6477 317.186 58.2614C316.52 56.875 315.614 55.8258 314.47 55.1136C313.334 54.4015 312.061 54.0455 310.652 54.0455C309.243 54.0455 307.967 54.4015 306.823 55.1136C305.686 55.8258 304.781 56.875 304.107 58.2614C303.44 59.6477 303.107 61.3485 303.107 63.3636C303.107 65.3788 303.44 67.0795 304.107 68.4659C304.781 69.8523 305.686 70.9015 306.823 71.6136C307.967 72.3258 309.243 72.6818 310.652 72.6818C312.061 72.6818 313.334 72.3258 314.47 71.6136C315.614 70.9015 316.52 69.8523 317.186 68.4659C317.861 67.0795 318.198 65.3788 318.198 63.3636ZM345.982 65.0455V67.5455H336.345V65.0455H345.982ZM336.982 57.5455V75H334.3V57.5455H336.982ZM348.027 57.5455V75H345.345V57.5455H348.027ZM358.061 75.4091C356.955 75.4091 355.952 75.2008 355.05 74.7841C354.148 74.3598 353.433 73.75 352.902 72.9545C352.372 72.1515 352.107 71.1818 352.107 70.0455C352.107 69.0455 352.304 68.2348 352.698 67.6136C353.092 66.9848 353.618 66.4924 354.277 66.1364C354.936 65.7803 355.664 65.5152 356.459 65.3409C357.262 65.1591 358.069 65.0152 358.88 64.9091C359.94 64.7727 360.8 64.6705 361.459 64.6023C362.126 64.5265 362.611 64.4015 362.914 64.2273C363.224 64.053 363.38 63.75 363.38 63.3182V63.2273C363.38 62.1061 363.073 61.2348 362.459 60.6136C361.853 59.9924 360.933 59.6818 359.698 59.6818C358.417 59.6818 357.414 59.9621 356.686 60.5227C355.959 61.0833 355.448 61.6818 355.152 62.3182L352.607 61.4091C353.061 60.3485 353.667 59.5227 354.425 58.9318C355.19 58.3333 356.023 57.9167 356.925 57.6818C357.834 57.4394 358.728 57.3182 359.607 57.3182C360.167 57.3182 360.811 57.3864 361.539 57.5227C362.273 57.6515 362.982 57.9205 363.664 58.3295C364.353 58.7386 364.925 59.3561 365.38 60.1818C365.834 61.0076 366.061 62.1136 366.061 63.5V75H363.38V72.6364H363.243C363.061 73.0152 362.758 73.4205 362.334 73.8523C361.91 74.2841 361.345 74.6515 360.641 74.9545C359.936 75.2576 359.077 75.4091 358.061 75.4091ZM358.47 73C359.531 73 360.425 72.7917 361.152 72.375C361.887 71.9583 362.44 71.4205 362.811 70.7614C363.19 70.1023 363.38 69.4091 363.38 68.6818V66.2273C363.266 66.3636 363.016 66.4886 362.63 66.6023C362.251 66.7083 361.811 66.803 361.311 66.8864C360.819 66.9621 360.338 67.0303 359.868 67.0909C359.406 67.1439 359.031 67.1894 358.743 67.2273C358.046 67.3182 357.395 67.4659 356.789 67.6705C356.19 67.8674 355.705 68.1667 355.334 68.5682C354.97 68.9621 354.789 69.5 354.789 70.1818C354.789 71.1136 355.133 71.8182 355.823 72.2955C356.52 72.7652 357.402 73 358.47 73ZM378.047 75.3636C376.411 75.3636 375.002 74.9773 373.82 74.2045C372.638 73.4318 371.729 72.3674 371.093 71.0114C370.456 69.6553 370.138 68.1061 370.138 66.3636C370.138 64.5909 370.464 63.0265 371.115 61.6705C371.774 60.3068 372.691 59.2424 373.865 58.4773C375.047 57.7045 376.426 57.3182 378.002 57.3182C379.229 57.3182 380.335 57.5455 381.32 58C382.305 58.4545 383.112 59.0909 383.74 59.9091C384.369 60.7273 384.759 61.6818 384.911 62.7727H382.229C382.024 61.9773 381.57 61.2727 380.865 60.6591C380.168 60.0379 379.229 59.7273 378.047 59.7273C377.002 59.7273 376.085 60 375.297 60.5455C374.517 61.0833 373.907 61.8447 373.468 62.8295C373.036 63.8068 372.82 64.9545 372.82 66.2727C372.82 67.6212 373.032 68.7955 373.456 69.7955C373.888 70.7955 374.494 71.572 375.274 72.125C376.062 72.678 376.987 72.9545 378.047 72.9545C378.744 72.9545 379.377 72.8333 379.945 72.5909C380.513 72.3485 380.994 72 381.388 71.5455C381.782 71.0909 382.062 70.5455 382.229 69.9091H384.911C384.759 70.9394 384.384 71.8674 383.786 72.6932C383.195 73.5114 382.411 74.1629 381.434 74.6477C380.464 75.125 379.335 75.3636 378.047 75.3636Z" fill="#9A9A9A"/>
<g clip-path="url(#clip2_431_4)">
<path d="M275.81 72.0833H271.053V70.8388C271.053 67.0848 273.254 63.8057 277.251 61.6048C280.272 59.9423 281.836 56.6474 281.232 53.2116C280.674 50.0402 278.065 47.4356 274.889 46.8782C272.489 46.4587 270.164 47.0698 268.338 48.5993C266.536 50.1098 265.504 52.3217 265.504 54.6667H260.746C260.746 50.9142 262.399 47.377 265.279 44.9624C268.155 42.5494 271.963 41.5456 275.71 42.1995C280.823 43.0957 285.02 47.2867 285.918 52.3914C286.865 57.7732 284.304 63.1486 279.548 65.7658C277.067 67.1307 275.81 68.8359 275.81 70.8388V72.0833ZM275.81 75.25H271.053V80H275.81V75.25Z" fill="#9A9A9A"/>
</g>
<defs>
<filter id="filter0_d_431_4" x="-7" y="-2" width="1931" height="138" filterUnits="userSpaceOnUse" color-interpolation-filters="sRGB">
<feFlood flood-opacity="0" result="BackgroundImageFix"/>
<feColorMatrix in="SourceAlpha" type="matrix" values="0 0 0 0 0 0 0 0 0 0 0 0 0 0 0 0 0 0 127 0" result="hardAlpha"/>
<feOffset dy="4"/>
<feGaussianBlur stdDeviation="2"/>
<feComposite in2="hardAlpha" operator="out"/>
<feColorMatrix type="matrix" values="0 0 0 0 0 0 0 0 0 0 0 0 0 0 0 0 0 0 0.25 0"/>
<feBlend mode="normal" in2="BackgroundImageFix" result="effect1_dropShadow_431_4"/>
<feBlend mode="normal" in="SourceGraphic" in2="effect1_dropShadow_431_4" result="shape"/>
</filter>
<clipPath id="clip0_431_4">
<rect width="39.6358" height="38" fill="white" transform="translate(707.108 44)"/>
</clipPath>
<clipPath id="clip1_431_4">
<rect width="38.0594" height="38" fill="white" transform="translate(430.677 43)"/>
</clipPath>
<clipPath id="clip2_431_4">
<rect width="38.0594" height="38" fill="white" transform="translate(254.402 42)"/>
</clipPath>
</defs>
</svg>
